<?xml version="1.0" encoding="UTF-8"?>
<!DOCTYPE svg PUBLIC "-//W3C//DTD SVG 1.0//EN" "http://www.w3.org/TR/2001/REC-SVG-20010904/DTD/svg10.dtd">
<!-- Creator: CorelDRAW -->
<?xml-stylesheet href="brandlogo.css" type="text/css"?>
<svg xmlns="http://www.w3.org/2000/svg" xml:space="preserve" width="6.881in" height="7.63611in" version="1.0" style="shape-rendering:geometricPrecision; text-rendering:geometricPrecision; image-rendering:optimizeQuality; fill-rule:evenodd; clip-rule:evenodd"
viewBox="0 0 6880.99 7636.11"
 xmlns:xlink="http://www.w3.org/1999/xlink"
 xmlns:xodm="http://www.corel.com/coreldraw/odm/2003">
 <g id="Layer_x0020_1">
  <metadata id="CorelCorpID_0Corel-Layer"/>
  <path style="fill: wheat; " class="fil0" d="M3823.72 4293.23c-191.74,-419.59 -497.4,-830.84 -900.31,-1253.22 -402.92,-422.38 -903.11,-855.86 -1239.35,-1183.75 -336.23,-327.9 -564.48,-534.28 -628,-864.2 -146.7,-761.86 -156.19,-709.14 -720.78,-992.06 -37.93,155 -73.06,310.84 -95.02,470.53 -27.62,200.96 -36.02,416.1 -5.93,659.48 41.62,336.64 156.28,728.72 274.89,1134.44 59.64,203.96 120.27,411.31 173.43,616.65 82.72,319.51 148.31,635.78 184.88,949.8 37.04,317.89 44.84,635.49 11.47,954.66 -33.31,318.55 -107.01,634.22 -197.68,935.14 -88.95,295.23 -195.8,580.26 -296.38,839.55 -85.7,220.92 -166.7,422.46 -238.24,596.31 -54.21,131.75 -104.05,249.85 -146.7,349.08 164.74,-70.15 376.24,-179.03 590.12,-357.26 161.59,-134.66 327.74,-311.5 483.65,-508.21 163.04,-205.69 312.5,-430.3 432.02,-648.97 116.92,-213.92 206.5,-424.75 276.39,-621.31 70.67,-198.76 120.48,-380.23 157.94,-535.44 75.78,-313.93 102.92,-525.57 130.04,-737.13l0.46 -3.23 -0.46 -0.06 0.04 -0.24 0.44 0.06c13.3,-90.3 96.48,-153.78 187.46,-142.27 92.14,11.65 157.39,95.8 145.74,187.94l-0.39 2.99 0.42 0.06 -0.04 0.24 -0.42 -0.06c-28.28,220.68 -56.84,441.96 -136.22,770.81 -40.33,167.1 -93.36,360.81 -167.18,568.41 -74.59,209.81 -171.21,436.68 -298.81,670.13 -129.7,237.29 -290.11,478.79 -463.68,697.75 -168.01,211.96 -350.66,405.55 -532.44,557.03 -109.94,91.63 -218.44,166.91 -321.32,229.22 1075,-555.9 1213.04,208.27 1553.19,-594.67 209.92,-495.53 622.44,-1089.27 803.06,-1617.24 180.63,-527.96 230.64,-933.67 250.09,-1142.08 19.45,-208.4 8.34,-219.52 72.26,41.69 63.91,261.21 202.84,794.73 422.37,1358.81 219.53,564.1 541.98,1145.36 761.39,1536.67 469.37,837.1 658.15,-38.02 1525.55,416.81 -566.87,-689.14 -1133.73,-1378.27 -1456.07,-1936.81 -322.34,-558.54 -400.15,-986.46 -591.89,-1406.07zm-2238.59 -1417.86c-50.26,-78.3 -27.53,-182.53 50.78,-232.78 78.3,-50.26 182.52,-27.53 232.78,50.77 49.17,76.47 98.36,153 149.22,238.04 49.79,83.25 95.84,166.4 134.3,249.24 39.67,85.46 71.05,168.87 98.25,251.22 26.44,80.02 49.3,160.03 72.15,240.02 25.48,89.58 -26.49,182.9 -116.07,208.38 -89.58,25.48 -182.89,-26.48 -208.38,-116.07 -21.59,-75.61 -43.21,-151.24 -68.18,-226.81 -24.2,-73.25 -51.2,-145.48 -83.76,-215.61 -33.77,-72.75 -73.9,-145.25 -117.17,-217.59 -42.21,-70.57 -93.07,-149.7 -143.93,-228.8z"/>
  <path style="fill: wheat;" class="fil0" d="M5113.07 2195.27c91.7,177.83 275.11,383.47 364.02,614.11 88.93,230.63 75.37,503.67 -77.8,836.42 -153.17,332.75 -517.67,884.25 -801.62,1283.87 904.33,0 1357.6,-306.98 1763.07,-1061.58 200.07,-372.36 222.31,-644.67 188.96,-894.76 -33.34,-250.09 -122.27,-477.95 -172.28,-669.69 -50.02,-191.74 -61.13,-347.35 36.11,-550.2 90.78,-189.33 275.97,-419.82 467.46,-653.05 -547.38,0 -1575.94,-115.52 -1784.6,533.57 -75.02,233.41 -75.02,383.46 16.68,561.31z"/>
 </g>
</svg>
